<?xml version="1.0" encoding="utf-8"?>
<!-- Generator: Adobe Illustrator 24.1.1, SVG Export Plug-In . SVG Version: 6.00 Build 0)  -->
<svg version="1.1" id="Layer_1" xmlns="http://www.w3.org/2000/svg" xmlns:xlink="http://www.w3.org/1999/xlink" x="0px" y="0px"
	 viewBox="0 0 512 512" style="enable-background:new 0 0 512 512;" xml:space="preserve">
<style type="text/css">
	.st0{fill:#050708;}
	.st1{fill:#F6921E;}
</style>
<g>
	<path class="st0" d="M455.84,376.37l-77.6-65.79c9.86-17.05,15.03-36.25,15.03-56.33c0-20.64-5.73-40.9-16.31-58.42l65.51-55.56
		c0,0,0,0,0,0l11.96-10.14l-10.02-12.06c-0.03-0.04-0.06-0.07-0.09-0.11c-0.01-0.01-0.01-0.01-0.01-0.02
		c-0.01-0.01-0.01-0.01-0.02-0.02c-40.67-48.89-100.43-76.92-163.98-76.92h-15.84v131.99h15.84c1.51,0,3.01,0.04,4.51,0.13
		c0.08,0,0.16,0.01,0.24,0.02c1.43,0.08,2.86,0.2,4.28,0.36l0.17,0.02c0.01,0,0.02,0,0.03,0c1.46,0.16,2.9,0.37,4.34,0.61
		c0.04,0.01,0.08,0.01,0.12,0.02c1.41,0.24,2.81,0.52,4.2,0.83c0.09,0.02,0.18,0.04,0.27,0.06c1.37,0.31,2.73,0.66,4.08,1.04
		l0.29,0.08c1.26,0.36,2.5,0.76,3.73,1.18c0.1,0.04,0.21,0.07,0.31,0.11l0.51,0.18c1.05,0.37,2.08,0.77,3.11,1.18
		c0.69,0.27,1.36,0.56,2.03,0.85c0.62,0.27,1.24,0.54,1.85,0.82c0.71,0.33,1.4,0.66,2.08,1c0.72,0.36,1.44,0.72,2.16,1.1
		c0.07,0.04,0.14,0.07,0.21,0.11c0.16,0.09,0.33,0.18,0.51,0.27c0.08,0.04,0.16,0.09,0.23,0.13c1.04,0.58,2.07,1.18,3.09,1.8
		l0.15,0.09c0.19,0.11,0.37,0.23,0.55,0.33c0.9,0.56,1.77,1.15,2.65,1.75c0.5,0.34,1,0.68,1.51,1.05c0.85,0.6,1.68,1.22,2.51,1.86
		l0.27,0.21c0.21,0.16,0.43,0.33,0.64,0.5c0.86,0.69,1.72,1.4,2.56,2.13c0.23,0.2,0.46,0.39,0.68,0.59l0.15,0.13
		c0.87,0.77,1.72,1.57,2.55,2.38c0.18,0.18,0.37,0.35,0.55,0.53l0.02,0.02c0.9,0.89,1.78,1.82,2.65,2.76
		c0.21,0.23,0.43,0.47,0.64,0.7c0.92,1.02,1.83,2.07,2.7,3.14l0.02,0.02c11.87,14.62,18.14,32.31,18.14,51.18
		c0,18.09-5.81,35.2-16.8,49.49l-0.16,0.21c-0.38,0.49-0.76,0.97-1.15,1.45c-0.04,0.04-0.07,0.09-0.11,0.13l-0.15,0.19
		c-0.24,0.29-0.5,0.6-0.75,0.9c-0.21,0.25-0.41,0.5-0.63,0.74c-0.43,0.5-0.88,1-1.36,1.53c-0.44,0.48-0.88,0.96-1.41,1.51
		c-0.25,0.26-0.5,0.53-0.76,0.78l-0.33,0.34c-0.34,0.35-0.7,0.7-1.05,1.03l-0.35,0.34c-0.15,0.15-0.31,0.29-0.46,0.43l-1,0.93
		c-1.96,1.81-4.04,3.53-6.24,5.17c-0.29,0.22-0.58,0.44-0.87,0.64l-1.07,0.76c-0.28,0.2-0.55,0.39-0.82,0.57l-0.41,0.28
		c-0.29,0.2-0.58,0.39-0.87,0.58l-0.39,0.25c-0.29,0.19-0.58,0.38-0.87,0.56l-0.65,0.41c-0.09,0.06-0.19,0.11-0.29,0.17l-0.27,0.16
		c-1.58,0.97-3.28,1.92-5.16,2.88c-0.48,0.24-0.96,0.49-1.45,0.72l-0.55,0.27c-0.5,0.24-1,0.47-1.51,0.7l-0.32,0.14
		c-0.47,0.21-0.94,0.41-1.42,0.61l-0.56,0.23c-0.21,0.09-0.42,0.18-0.63,0.26l-0.61,0l-2.49,1.18c-0.43,0.15-0.87,0.31-1.35,0.47
		c-1.31,0.45-2.61,0.85-3.87,1.2l-0.27,0.08c-0.53,0.16-1.06,0.29-1.62,0.44l-0.3,0.08c-0.43,0.11-0.86,0.21-1.3,0.32l-0.11,0.03
		c-0.76,0.18-1.53,0.34-2.3,0.5l-0.16,0.03c-0.54,0.11-1.08,0.22-1.63,0.32l-0.48,0.08c-0.27,0.05-0.54,0.1-0.92,0.15l-1.2,0.18
		c-0.49,0.07-0.98,0.14-1.53,0.21c-0.44,0.06-0.9,0.11-1.35,0.16c-0.47,0.05-0.95,0.1-1.42,0.14c-0.33,0.03-0.66,0.06-0.99,0.08
		c-0.26,0.02-0.53,0.04-0.79,0.06c-0.46,0.03-0.92,0.06-1.39,0.09c-1.45,0.08-2.92,0.12-4.38,0.12c-44.81,0-81.27-36.46-81.27-81.27
		V82.34V55.16L175.66,68.4c-0.01,0-0.01,0.01-0.02,0.01l-0.24,0.14C108.57,106.38,67.06,177.53,67.06,254.24
		c0,117.59,95.67,213.26,213.26,213.26c64.51,0,124.82-28.72,165.53-78.8c0-0.01,0.01-0.01,0.01-0.02c0.01-0.01,0.01-0.02,0.02-0.03
		c0.07-0.08,0.14-0.16,0.21-0.25L455.84,376.37z M296.16,73.36c42.98,3.73,83.03,22.57,113.35,53.31l-52.56,44.58
		c-0.14-0.13-0.29-0.25-0.43-0.38c-0.39-0.36-0.8-0.73-1.25-1.12c-0.05-0.05-0.1-0.09-0.15-0.13c-0.54-0.48-1.07-0.96-1.61-1.42
		l-0.45-0.47l-0.66-0.46c-0.15-0.13-0.31-0.25-0.47-0.38c-7.66-6.3-16.08-11.53-25.04-15.58c-0.05-0.02-0.11-0.05-0.16-0.07
		c-2.35-1.06-4.73-2.04-7.15-2.93c-0.36-0.14-0.71-0.26-1.05-0.38c-1.13-0.4-2.26-0.79-3.4-1.16c-0.11-0.04-0.22-0.08-0.33-0.11
		c-0.06-0.02-0.13-0.04-0.2-0.06c-0.91-0.29-1.83-0.57-2.75-0.84c-0.1-0.03-0.2-0.06-0.3-0.09c-0.29-0.09-0.59-0.17-0.92-0.26
		c-0.33-0.09-0.67-0.18-1-0.27c-0.36-0.1-0.71-0.2-1.07-0.29l-0.29-0.07c-0.75-0.19-1.5-0.37-2.25-0.54
		c-0.19-0.04-0.37-0.08-0.56-0.12c-0.52-0.12-1.03-0.23-1.55-0.34c-0.35-0.08-0.7-0.16-1.05-0.22c-0.71-0.14-1.4-0.28-2.07-0.4
		c-0.29-0.05-0.58-0.1-0.87-0.15c-0.51-0.09-1.01-0.18-1.53-0.26c-0.43-0.07-0.85-0.15-1.29-0.21c-0.21-0.03-0.43-0.06-0.64-0.09
		c-0.1-0.01-0.2-0.03-0.3-0.05V73.36z M280.32,435.81c-100.12,0-181.57-81.45-181.57-181.57c0-55.72,25.73-107.99,68.61-142.15
		v142.15c0,62.28,50.67,112.96,112.96,112.96c0.95,0,1.9-0.01,2.84-0.04l0.16,0c0.38-0.01,0.76-0.03,1.13-0.04
		c0.54-0.02,1.09-0.04,1.63-0.06c0.01,0,0.03,0,0.04,0c0.06,0,0.11-0.01,0.17-0.01c1.86-0.1,3.7-0.24,5.54-0.42l0.44-0.04
		c0.17-0.02,0.34-0.04,0.51-0.06c1.05-0.11,2.09-0.24,3.13-0.38l2.61-0.01l1.12-0.56c5.77-0.99,11.42-2.42,16.9-4.26l0.75,0
		l2.14-1.02c14.6-5.36,27.97-13.72,39.31-24.71l52.48,44.5C377.06,415.68,330.16,435.81,280.32,435.81z"/>
</g>
<polygon class="st1" points="255.48,292.76 255.4,206.79 329.9,249.71 "/>
</svg>
